<mxfile host="app.diagrams.net" agent="Mozilla/5.0 (Windows NT 10.0; Win64; x64) AppleWebKit/537.36 (KHTML, like Gecko) Chrome/128.0.0.0 Safari/537.36 OPR/114.0.0.0" version="25.0.1">
  <diagram name="Page-1" id="3rcWCyzHcWl6F-Md15Dv">
    <mxGraphModel dx="913" dy="575" grid="1" gridSize="10" guides="1" tooltips="1" connect="1" arrows="1" fold="1" page="1" pageScale="1" pageWidth="850" pageHeight="1100" math="0" shadow="0">
      <root>
        <mxCell id="0" />
        <mxCell id="1" parent="0" />
        <mxCell id="JCDc8CxZhE4OR24ge3wE-26" style="edgeStyle=orthogonalEdgeStyle;rounded=0;orthogonalLoop=1;jettySize=auto;html=1;exitX=0.5;exitY=1;exitDx=0;exitDy=0;entryX=0.5;entryY=0;entryDx=0;entryDy=0;" edge="1" parent="1" source="JCDc8CxZhE4OR24ge3wE-1" target="JCDc8CxZhE4OR24ge3wE-25">
          <mxGeometry relative="1" as="geometry" />
        </mxCell>
        <mxCell id="JCDc8CxZhE4OR24ge3wE-28" style="edgeStyle=orthogonalEdgeStyle;rounded=0;orthogonalLoop=1;jettySize=auto;html=1;exitX=0;exitY=0.75;exitDx=0;exitDy=0;entryX=0.75;entryY=0;entryDx=0;entryDy=0;" edge="1" parent="1" source="JCDc8CxZhE4OR24ge3wE-1" target="JCDc8CxZhE4OR24ge3wE-27">
          <mxGeometry relative="1" as="geometry" />
        </mxCell>
        <mxCell id="JCDc8CxZhE4OR24ge3wE-1" value="Vasaljós byrjar að titra og blikka" style="rounded=0;whiteSpace=wrap;html=1;" vertex="1" parent="1">
          <mxGeometry x="240" y="230" width="120" height="60" as="geometry" />
        </mxCell>
        <mxCell id="JCDc8CxZhE4OR24ge3wE-4" style="edgeStyle=orthogonalEdgeStyle;rounded=0;orthogonalLoop=1;jettySize=auto;html=1;exitX=0.5;exitY=1;exitDx=0;exitDy=0;entryX=0.5;entryY=0;entryDx=0;entryDy=0;" edge="1" parent="1" source="JCDc8CxZhE4OR24ge3wE-2" target="JCDc8CxZhE4OR24ge3wE-3">
          <mxGeometry relative="1" as="geometry" />
        </mxCell>
        <mxCell id="JCDc8CxZhE4OR24ge3wE-6" style="edgeStyle=orthogonalEdgeStyle;rounded=0;orthogonalLoop=1;jettySize=auto;html=1;exitX=1;exitY=0.5;exitDx=0;exitDy=0;entryX=0;entryY=0.5;entryDx=0;entryDy=0;" edge="1" parent="1" source="JCDc8CxZhE4OR24ge3wE-2" target="JCDc8CxZhE4OR24ge3wE-5">
          <mxGeometry relative="1" as="geometry" />
        </mxCell>
        <mxCell id="JCDc8CxZhE4OR24ge3wE-2" value="Hauskúpa" style="rounded=0;whiteSpace=wrap;html=1;" vertex="1" parent="1">
          <mxGeometry x="520" y="130" width="120" height="60" as="geometry" />
        </mxCell>
        <mxCell id="JCDc8CxZhE4OR24ge3wE-3" value="Fær mqtt til þess að byrja scenu þar sem að rofinn fór í gang á vasaljósinu" style="rounded=0;whiteSpace=wrap;html=1;" vertex="1" parent="1">
          <mxGeometry x="520" y="230" width="120" height="60" as="geometry" />
        </mxCell>
        <mxCell id="JCDc8CxZhE4OR24ge3wE-7" style="edgeStyle=orthogonalEdgeStyle;rounded=0;orthogonalLoop=1;jettySize=auto;html=1;exitX=0.5;exitY=0;exitDx=0;exitDy=0;entryX=0.5;entryY=0;entryDx=0;entryDy=0;" edge="1" parent="1" source="JCDc8CxZhE4OR24ge3wE-5" target="JCDc8CxZhE4OR24ge3wE-2">
          <mxGeometry relative="1" as="geometry" />
        </mxCell>
        <mxCell id="JCDc8CxZhE4OR24ge3wE-5" value="Fær ekki mqtt skilaboð" style="rounded=0;whiteSpace=wrap;html=1;" vertex="1" parent="1">
          <mxGeometry x="670" y="130" width="120" height="60" as="geometry" />
        </mxCell>
        <mxCell id="JCDc8CxZhE4OR24ge3wE-13" style="edgeStyle=orthogonalEdgeStyle;rounded=0;orthogonalLoop=1;jettySize=auto;html=1;exitX=0.5;exitY=1;exitDx=0;exitDy=0;entryX=0.5;entryY=0;entryDx=0;entryDy=0;" edge="1" parent="1" source="JCDc8CxZhE4OR24ge3wE-8" target="JCDc8CxZhE4OR24ge3wE-9">
          <mxGeometry relative="1" as="geometry" />
        </mxCell>
        <mxCell id="JCDc8CxZhE4OR24ge3wE-14" style="edgeStyle=orthogonalEdgeStyle;rounded=0;orthogonalLoop=1;jettySize=auto;html=1;exitX=0;exitY=0.5;exitDx=0;exitDy=0;entryX=0.75;entryY=0;entryDx=0;entryDy=0;" edge="1" parent="1" source="JCDc8CxZhE4OR24ge3wE-8" target="JCDc8CxZhE4OR24ge3wE-12">
          <mxGeometry relative="1" as="geometry" />
        </mxCell>
        <mxCell id="JCDc8CxZhE4OR24ge3wE-8" value="Vasaljós" style="rounded=0;whiteSpace=wrap;html=1;" vertex="1" parent="1">
          <mxGeometry x="240" y="40" width="120" height="60" as="geometry" />
        </mxCell>
        <mxCell id="JCDc8CxZhE4OR24ge3wE-11" style="edgeStyle=orthogonalEdgeStyle;rounded=0;orthogonalLoop=1;jettySize=auto;html=1;exitX=1;exitY=0.5;exitDx=0;exitDy=0;entryX=0;entryY=0.5;entryDx=0;entryDy=0;" edge="1" parent="1" source="JCDc8CxZhE4OR24ge3wE-22" target="JCDc8CxZhE4OR24ge3wE-2">
          <mxGeometry relative="1" as="geometry" />
        </mxCell>
        <mxCell id="JCDc8CxZhE4OR24ge3wE-24" style="edgeStyle=orthogonalEdgeStyle;rounded=0;orthogonalLoop=1;jettySize=auto;html=1;exitX=0.5;exitY=1;exitDx=0;exitDy=0;entryX=0.5;entryY=0;entryDx=0;entryDy=0;" edge="1" parent="1" source="JCDc8CxZhE4OR24ge3wE-9" target="JCDc8CxZhE4OR24ge3wE-1">
          <mxGeometry relative="1" as="geometry" />
        </mxCell>
        <mxCell id="JCDc8CxZhE4OR24ge3wE-9" value="Kveikt á rofanum" style="rounded=0;whiteSpace=wrap;html=1;" vertex="1" parent="1">
          <mxGeometry x="240" y="130" width="120" height="60" as="geometry" />
        </mxCell>
        <mxCell id="JCDc8CxZhE4OR24ge3wE-16" style="edgeStyle=orthogonalEdgeStyle;rounded=0;orthogonalLoop=1;jettySize=auto;html=1;exitX=0.25;exitY=0;exitDx=0;exitDy=0;entryX=0.5;entryY=0;entryDx=0;entryDy=0;" edge="1" parent="1" source="JCDc8CxZhE4OR24ge3wE-12" target="JCDc8CxZhE4OR24ge3wE-8">
          <mxGeometry relative="1" as="geometry" />
        </mxCell>
        <mxCell id="JCDc8CxZhE4OR24ge3wE-12" value="Ekki kveikt á rofanum" style="rounded=0;whiteSpace=wrap;html=1;" vertex="1" parent="1">
          <mxGeometry x="100" y="130" width="120" height="60" as="geometry" />
        </mxCell>
        <mxCell id="JCDc8CxZhE4OR24ge3wE-20" value="Scenan endar" style="rounded=0;whiteSpace=wrap;html=1;" vertex="1" parent="1">
          <mxGeometry x="240" y="410" width="120" height="60" as="geometry" />
        </mxCell>
        <mxCell id="JCDc8CxZhE4OR24ge3wE-23" value="" style="edgeStyle=orthogonalEdgeStyle;rounded=0;orthogonalLoop=1;jettySize=auto;html=1;exitX=1;exitY=0.5;exitDx=0;exitDy=0;entryX=0;entryY=0.5;entryDx=0;entryDy=0;" edge="1" parent="1" source="JCDc8CxZhE4OR24ge3wE-9" target="JCDc8CxZhE4OR24ge3wE-22">
          <mxGeometry relative="1" as="geometry">
            <mxPoint x="360" y="160" as="sourcePoint" />
            <mxPoint x="520" y="160" as="targetPoint" />
          </mxGeometry>
        </mxCell>
        <mxCell id="JCDc8CxZhE4OR24ge3wE-22" value="Sendi mqtt á hauskúpuna að byrja scenuna" style="rounded=0;whiteSpace=wrap;html=1;" vertex="1" parent="1">
          <mxGeometry x="380" y="130" width="120" height="60" as="geometry" />
        </mxCell>
        <mxCell id="JCDc8CxZhE4OR24ge3wE-31" style="edgeStyle=orthogonalEdgeStyle;rounded=0;orthogonalLoop=1;jettySize=auto;html=1;exitX=1;exitY=0.5;exitDx=0;exitDy=0;entryX=0;entryY=0.5;entryDx=0;entryDy=0;" edge="1" parent="1" source="JCDc8CxZhE4OR24ge3wE-25" target="JCDc8CxZhE4OR24ge3wE-30">
          <mxGeometry relative="1" as="geometry" />
        </mxCell>
        <mxCell id="JCDc8CxZhE4OR24ge3wE-33" style="edgeStyle=orthogonalEdgeStyle;rounded=0;orthogonalLoop=1;jettySize=auto;html=1;exitX=0.5;exitY=1;exitDx=0;exitDy=0;entryX=0.5;entryY=0;entryDx=0;entryDy=0;" edge="1" parent="1" source="JCDc8CxZhE4OR24ge3wE-25" target="JCDc8CxZhE4OR24ge3wE-20">
          <mxGeometry relative="1" as="geometry" />
        </mxCell>
        <mxCell id="JCDc8CxZhE4OR24ge3wE-25" value="3 sekúndur eru búnar að líða" style="rounded=0;whiteSpace=wrap;html=1;" vertex="1" parent="1">
          <mxGeometry x="240" y="320" width="120" height="60" as="geometry" />
        </mxCell>
        <mxCell id="JCDc8CxZhE4OR24ge3wE-29" style="edgeStyle=orthogonalEdgeStyle;rounded=0;orthogonalLoop=1;jettySize=auto;html=1;exitX=0.25;exitY=0;exitDx=0;exitDy=0;entryX=0;entryY=0.25;entryDx=0;entryDy=0;" edge="1" parent="1" source="JCDc8CxZhE4OR24ge3wE-27" target="JCDc8CxZhE4OR24ge3wE-1">
          <mxGeometry relative="1" as="geometry" />
        </mxCell>
        <mxCell id="JCDc8CxZhE4OR24ge3wE-27" value="Minna en 3 sek" style="rounded=0;whiteSpace=wrap;html=1;" vertex="1" parent="1">
          <mxGeometry x="100" y="300" width="120" height="60" as="geometry" />
        </mxCell>
        <mxCell id="JCDc8CxZhE4OR24ge3wE-30" value="sendi mqtt á hauskúpu að stoppa scenuna" style="rounded=0;whiteSpace=wrap;html=1;" vertex="1" parent="1">
          <mxGeometry x="380" y="320" width="120" height="60" as="geometry" />
        </mxCell>
      </root>
    </mxGraphModel>
  </diagram>
</mxfile>
